<?xml version="1.0" standalone="no"?>
<!DOCTYPE svg PUBLIC "-//W3C//DTD SVG 20010904//EN"
 "http://www.w3.org/TR/2001/REC-SVG-20010904/DTD/svg10.dtd">
<svg version="1.0" xmlns="http://www.w3.org/2000/svg"
 width="2226.000000pt" height="2226.000000pt" viewBox="0 0 2226.000000 2226.000000"
 preserveAspectRatio="xMidYMid meet">
<metadata>
Created by potrace 1.11, written by Peter Selinger 2001-2013
</metadata>
<g transform="translate(0.000000,2226.000000) scale(0.100000,-0.100000)"
fill="#000000" stroke="none">
<path d="M7916 21513 c-3 -10 -7 -36 -11 -57 -3 -21 -7 -48 -10 -60 -2 -12 -7
-37 -10 -56 -2 -19 -7 -46 -10 -60 -10 -52 -14 -76 -19 -110 -3 -19 -14 -84
-25 -145 -11 -60 -23 -132 -27 -160 -3 -27 -8 -52 -9 -55 -2 -3 -11 -48 -20
-100 -9 -52 -18 -108 -21 -125 -3 -16 -7 -43 -9 -58 -2 -16 -6 -40 -9 -55 -6
-28 -16 -82 -22 -117 -10 -65 -74 -424 -79 -445 -3 -14 -10 -54 -16 -90 -6
-36 -15 -72 -20 -81 -5 -9 -55 -36 -111 -59 -506 -212 -855 -381 -1221 -592
-67 -39 -136 -78 -153 -88 -74 -42 -292 -181 -442 -281 -785 -525 -1502 -1172
-2113 -1909 -295 -356 -641 -848 -870 -1238 -181 -308 -367 -662 -482 -918
-25 -54 -56 -124 -70 -154 -13 -30 -46 -107 -72 -170 -26 -63 -53 -128 -60
-145 -7 -16 -22 -55 -33 -85 -11 -30 -36 -96 -55 -145 -34 -91 -146 -417 -152
-445 -2 -8 -13 -42 -23 -75 -51 -156 -178 -633 -197 -744 -3 -19 -7 -37 -9
-40 -2 -3 -7 -22 -10 -41 -3 -19 -14 -75 -25 -125 -11 -49 -22 -108 -26 -130
-3 -23 -8 -52 -10 -65 -3 -14 -8 -41 -11 -60 -7 -49 -13 -81 -18 -106 -2 -12
-7 -45 -11 -75 -4 -30 -8 -56 -10 -59 -2 -3 -6 -27 -9 -55 -4 -27 -13 -75 -21
-105 -7 -30 -16 -80 -20 -110 -3 -30 -8 -66 -10 -80 -2 -14 -6 -59 -10 -100
-3 -41 -9 -100 -11 -130 -25 -277 -29 -388 -29 -880 0 -437 4 -576 20 -750 12
-130 26 -269 30 -300 3 -19 7 -62 10 -95 3 -33 7 -69 9 -80 2 -11 7 -49 11
-84 7 -63 7 -64 -27 -94 -18 -16 -67 -62 -109 -101 -42 -39 -118 -109 -169
-156 -51 -47 -107 -98 -125 -115 -46 -44 -245 -227 -280 -259 -16 -15 -75 -69
-130 -120 -114 -106 -126 -118 -260 -241 -54 -49 -140 -130 -191 -178 l-92
-88 70 -127 c39 -70 104 -185 146 -257 41 -71 86 -150 100 -175 14 -25 98
-171 187 -325 90 -154 172 -296 182 -315 22 -38 152 -264 278 -480 43 -74 89
-155 103 -180 14 -25 36 -62 49 -82 12 -21 23 -39 23 -42 0 -2 17 -33 38 -67
22 -35 50 -84 64 -109 14 -25 92 -160 173 -300 139 -240 494 -854 537 -930 49
-84 178 -309 195 -338 10 -17 47 -81 83 -143 36 -62 80 -138 98 -168 17 -31
43 -76 57 -101 14 -25 35 -61 46 -80 29 -48 272 -466 296 -510 11 -19 43 -73
70 -120 28 -47 60 -101 71 -120 18 -32 237 -406 326 -557 20 -35 40 -63 44
-63 9 0 171 58 512 183 157 58 360 132 453 166 92 33 242 89 335 122 92 34
223 81 291 106 l124 43 31 -25 c244 -196 681 -505 983 -693 331 -207 786 -441
1308 -672 93 -41 401 -162 535 -209 80 -29 154 -56 166 -60 11 -5 103 -34 205
-65 101 -32 211 -66 244 -76 33 -10 72 -21 85 -24 14 -3 77 -19 140 -36 113
-31 462 -112 530 -124 19 -3 46 -8 60 -11 89 -18 129 -25 160 -30 36 -6 90
-15 125 -21 81 -15 136 -24 175 -28 25 -3 56 -8 70 -10 14 -3 48 -7 75 -11 28
-3 59 -8 70 -10 11 -2 49 -7 85 -10 78 -7 152 -15 200 -20 19 -3 73 -7 120
-11 47 -3 101 -8 120 -10 260 -26 1135 -26 1410 0 19 2 77 7 128 11 51 3 105
8 120 10 15 2 56 6 92 10 36 4 76 8 90 10 14 2 50 6 80 9 30 3 64 8 75 10 11
2 43 7 70 10 94 13 120 17 170 26 28 5 68 12 90 15 69 10 355 65 465 90 58 13
116 26 130 29 14 2 63 14 110 26 47 11 94 23 106 25 49 11 421 117 539 155
188 59 394 132 600 212 99 39 191 72 204 74 86 16 926 427 1111 544 8 5 32 18
53 30 78 42 358 217 517 323 148 99 437 304 467 331 6 6 45 35 86 64 69 48 77
51 103 41 16 -6 137 -44 269 -85 132 -41 260 -81 285 -89 49 -16 399 -125 415
-129 6 -1 33 -10 60 -18 616 -195 734 -230 744 -224 8 5 59 89 108 176 11 19
50 87 88 150 138 236 410 703 447 770 14 25 88 153 165 285 77 132 158 272
180 310 57 101 263 455 284 490 10 17 24 41 32 55 42 77 336 585 368 637 22
34 39 65 39 67 0 3 20 40 45 82 25 41 45 78 45 82 0 3 6 13 14 21 7 9 25 36
38 61 37 66 77 136 291 507 42 72 85 147 96 165 10 18 43 76 74 128 30 52 88
154 129 225 41 72 207 360 368 640 446 775 423 733 408 748 -7 7 -166 141
-353 297 -187 156 -345 289 -351 295 -7 5 -31 26 -54 44 -23 19 -48 40 -54 46
-6 5 -49 42 -96 80 -47 38 -94 77 -105 87 -11 9 -96 81 -190 159 -93 78 -173
146 -177 152 -3 6 -5 17 -3 26 1 9 6 50 11 91 4 41 8 77 9 80 1 3 5 34 9 70 5
36 10 72 11 80 2 8 6 44 9 80 4 36 9 81 11 100 3 19 7 69 10 109 3 41 7 89 9
105 3 17 7 85 11 151 4 66 9 145 11 175 4 64 4 769 0 850 -11 204 -17 310 -21
340 -2 19 -7 73 -11 120 -3 47 -8 99 -10 115 -2 17 -8 75 -14 130 -6 55 -12
111 -14 125 -3 14 -7 48 -11 75 -6 53 -23 173 -30 215 -2 14 -7 45 -10 70 -4
25 -9 54 -11 65 -2 11 -11 58 -19 105 -8 47 -17 96 -20 110 -3 14 -12 61 -21
105 -29 144 -34 167 -43 204 -6 20 -13 50 -16 66 -3 17 -12 57 -21 90 -8 33
-19 78 -24 100 -5 22 -34 128 -64 235 -171 612 -392 1185 -668 1735 -109 217
-244 468 -288 535 -6 8 -13 22 -17 30 -18 40 -229 378 -253 407 -5 7 -10 14
-10 17 0 15 -229 341 -379 541 -133 178 -340 437 -371 465 -3 3 -46 52 -95
109 -158 183 -504 539 -690 711 -620 571 -1286 1051 -1990 1432 -256 139 -739
370 -955 457 -90 37 -89 36 -126 195 -18 79 -35 155 -38 168 -2 12 -11 55 -20
93 -10 39 -19 81 -22 95 -3 14 -21 93 -40 175 -19 83 -37 164 -40 180 -3 17
-11 55 -19 85 -8 30 -16 67 -19 83 -12 58 -17 81 -32 146 -9 36 -17 73 -19 81
-2 8 -20 87 -40 175 -20 88 -37 165 -39 170 -1 6 -13 60 -26 122 l-24 111 -46
5 c-25 2 -1479 5 -3232 6 -3041 1 -3187 1 -3192 -16z m5919 -514 c7 -7 32 -95
41 -144 3 -16 12 -57 21 -90 8 -33 17 -71 19 -84 3 -13 21 -90 40 -170 35
-143 40 -165 48 -206 2 -11 20 -87 40 -170 29 -125 140 -604 151 -655 32 -145
46 -196 62 -210 10 -9 68 -36 128 -60 156 -60 518 -213 593 -249 34 -17 65
-31 68 -31 3 0 101 -47 217 -104 256 -126 540 -284 782 -437 78 -49 401 -263
405 -269 3 -3 28 -22 55 -40 87 -59 392 -289 431 -325 6 -5 26 -21 44 -35 31
-24 44 -34 100 -83 14 -12 54 -46 90 -76 36 -29 76 -64 90 -78 14 -13 39 -35
55 -49 118 -101 483 -462 616 -608 30 -32 65 -71 79 -86 57 -62 90 -100 174
-200 49 -58 98 -116 110 -130 25 -28 262 -333 289 -370 9 -14 37 -53 62 -87
529 -734 965 -1582 1254 -2438 68 -202 168 -536 196 -655 2 -8 8 -35 15 -60
24 -97 94 -408 104 -465 3 -16 8 -43 12 -58 3 -16 7 -38 9 -50 2 -12 13 -78
24 -147 22 -125 24 -140 37 -235 3 -27 8 -59 10 -70 2 -11 7 -45 10 -75 3 -30
7 -68 9 -85 28 -231 40 -384 51 -645 14 -319 7 -1076 -10 -1167 -2 -10 -7 -56
-11 -102 -4 -47 -8 -92 -10 -100 -1 -9 -6 -45 -10 -81 -4 -36 -9 -72 -10 -80
-2 -8 -6 -49 -10 -90 -4 -41 -8 -77 -10 -80 -1 -3 -6 -32 -10 -65 -10 -81 -10
-83 -34 -225 -29 -173 -31 -183 -36 -197 -6 -17 68 -84 385 -347 118 -98 226
-188 240 -200 14 -11 68 -56 120 -100 52 -43 106 -88 120 -100 14 -12 81 -68
150 -126 69 -57 127 -107 130 -110 3 -3 44 -38 93 -78 l87 -73 -26 -47 c-14
-26 -75 -130 -134 -232 -59 -102 -165 -286 -237 -410 -71 -124 -190 -328 -263
-455 -73 -126 -141 -244 -150 -261 -10 -16 -53 -91 -95 -165 -43 -74 -109
-188 -147 -254 -37 -66 -72 -127 -77 -135 -10 -15 -155 -266 -202 -349 -60
-105 -288 -499 -308 -531 -11 -19 -24 -42 -28 -50 -3 -8 -25 -46 -48 -85 -23
-38 -111 -189 -195 -335 -85 -146 -255 -438 -378 -650 -124 -212 -230 -394
-236 -405 -48 -86 -162 -273 -175 -287 -15 -15 -31 -12 -231 48 -118 35 -224
66 -235 68 -11 3 -36 10 -55 16 -19 6 -42 13 -50 15 -21 6 -147 44 -325 100
-82 25 -195 60 -250 77 -55 17 -125 39 -155 49 -146 48 -403 120 -415 115 -11
-4 -211 -160 -225 -175 -16 -18 -416 -317 -452 -339 -16 -9 -28 -20 -28 -24 0
-4 -4 -8 -10 -8 -5 0 -38 -21 -74 -46 -36 -25 -96 -62 -133 -83 -38 -21 -140
-83 -228 -137 -88 -54 -181 -110 -205 -123 -25 -13 -53 -31 -62 -39 -10 -8
-18 -12 -18 -8 0 4 -12 -1 -27 -12 -106 -73 -630 -331 -918 -452 -82 -34 -163
-69 -180 -76 -16 -7 -50 -20 -75 -29 -25 -10 -58 -23 -75 -30 -16 -7 -91 -34
-165 -60 -74 -26 -142 -49 -150 -53 -8 -3 -17 -6 -20 -7 -3 0 -70 -22 -150
-48 -127 -40 -367 -112 -410 -122 -8 -2 -53 -13 -100 -25 -47 -12 -92 -23
-101 -25 -8 -2 -44 -10 -80 -19 -97 -23 -337 -74 -407 -85 -34 -6 -90 -16
-124 -22 -64 -11 -85 -14 -148 -24 -109 -17 -159 -25 -197 -29 -24 -4 -60 -8
-80 -11 -40 -5 -95 -11 -178 -20 -27 -3 -66 -8 -85 -10 -19 -2 -69 -7 -110
-10 -41 -3 -95 -8 -120 -10 -159 -16 -939 -23 -1165 -11 -146 8 -335 25 -475
41 -19 2 -60 7 -90 10 -30 4 -66 8 -80 10 -72 10 -109 15 -150 20 -25 3 -99
15 -165 26 -66 11 -133 22 -150 25 -88 14 -307 57 -355 69 -30 8 -68 16 -85
19 -38 7 -327 79 -420 105 -38 11 -110 31 -159 45 -103 29 -482 156 -571 190
-590 230 -915 384 -1385 653 -91 52 -172 98 -180 103 -439 270 -618 394 -1009
698 -58 45 -119 93 -136 105 -16 12 -36 29 -45 37 -9 8 -39 35 -68 59 -48 39
-56 43 -90 36 -44 -8 -159 -48 -407 -140 -222 -82 -202 -75 -475 -174 -124
-45 -234 -85 -245 -90 -11 -5 -40 -16 -65 -25 -25 -8 -83 -29 -130 -46 -47
-18 -127 -47 -178 -65 l-93 -34 -43 67 c-23 37 -45 74 -49 82 -4 8 -15 29 -26
45 -10 17 -27 46 -38 65 -11 19 -98 168 -193 330 -95 162 -181 309 -190 325
-9 17 -50 86 -90 155 -40 69 -81 141 -92 160 -11 19 -60 104 -109 187 -49 84
-100 172 -113 195 -23 41 -70 123 -241 418 -256 442 -490 848 -502 870 -8 14
-22 39 -32 55 -10 17 -27 46 -38 65 -11 19 -62 107 -113 195 -51 88 -102 176
-112 195 -17 29 -149 258 -232 401 -208 360 -305 527 -322 557 -11 20 -55 98
-98 171 -69 120 -76 136 -62 147 14 10 158 144 311 289 292 278 394 374 461
434 42 38 104 95 328 306 24 22 78 73 120 112 56 52 76 78 72 90 -3 10 -8 35
-12 57 -3 21 -8 48 -10 60 -2 11 -9 55 -15 96 -6 41 -12 77 -14 80 -2 3 -6 35
-9 71 -4 35 -8 73 -10 84 -2 11 -7 49 -10 85 -4 36 -9 76 -11 90 -3 14 -7 59
-11 100 -3 41 -7 89 -10 105 -7 54 -17 514 -17 825 -1 258 7 525 18 645 8 90
16 186 20 235 3 30 7 75 10 100 3 25 7 65 10 90 8 72 39 291 50 360 2 14 7 41
10 60 21 127 30 178 89 470 66 325 256 973 371 1260 8 19 37 96 66 170 28 74
55 140 59 145 4 6 11 21 15 35 24 81 305 667 410 855 27 48 129 227 165 290
83 144 314 499 428 655 191 262 436 571 567 716 151 168 210 231 336 359 749
767 1581 1369 2544 1844 197 97 332 161 340 161 2 0 30 12 62 26 92 42 110 49
263 109 80 31 154 60 165 65 11 4 66 25 122 45 56 21 107 43 113 51 11 12 33
103 45 183 3 20 8 48 10 61 3 14 19 104 35 200 17 96 35 198 40 225 6 28 12
64 15 80 2 17 13 80 24 140 11 61 22 124 24 140 6 39 60 346 108 611 l11 62
2693 -2 c1481 0 2696 -4 2700 -7z"/>
<path d="M10740 17555 c0 -484 -1 -515 -17 -515 -10 0 -56 -5 -103 -10 -47 -5
-107 -12 -135 -15 -27 -2 -75 -7 -105 -10 -30 -3 -64 -8 -75 -10 -11 -2 -47
-7 -80 -10 -51 -6 -328 -53 -405 -70 -14 -2 -35 -7 -47 -9 -145 -29 -548 -139
-648 -176 -11 -4 -87 -31 -170 -60 -697 -245 -1367 -625 -1950 -1104 -267
-220 -607 -553 -796 -780 -13 -16 -29 -34 -34 -40 -32 -34 -154 -187 -236
-296 -340 -452 -622 -959 -847 -1521 -47 -118 -96 -248 -97 -259 -1 -3 -17
-54 -37 -115 -60 -179 -153 -522 -171 -631 -3 -16 -10 -49 -15 -74 -14 -58
-18 -79 -42 -230 -12 -69 -23 -136 -25 -150 -3 -14 -7 -50 -11 -80 -3 -30 -8
-62 -9 -71 -2 -8 -6 -55 -10 -105 -4 -49 -9 -92 -11 -95 -25 -43 -25 -969 0
-1144 3 -16 7 -59 10 -95 14 -162 57 -442 101 -655 22 -109 95 -405 105 -430
4 -11 18 -56 30 -100 28 -99 84 -268 117 -355 14 -36 26 -69 27 -75 4 -12 7
-22 62 -155 23 -58 50 -123 60 -145 10 -22 18 -42 19 -45 3 -9 42 -93 98 -210
51 -105 54 -116 39 -128 -26 -20 -495 -296 -665 -391 -16 -9 -36 -20 -45 -26
-10 -5 -75 -44 -145 -85 -70 -41 -127 -78 -127 -84 0 -11 90 -181 157 -296 28
-47 85 -146 128 -220 107 -186 95 -175 164 -140 31 17 74 40 96 53 22 13 60
35 85 49 38 21 116 67 325 188 62 36 372 213 412 236 l43 23 25 -32 c13 -18
78 -104 144 -192 121 -164 247 -318 374 -460 98 -108 383 -393 486 -485 46
-41 89 -79 95 -85 15 -13 170 -141 226 -186 25 -20 86 -66 135 -103 50 -37 98
-73 107 -81 34 -28 336 -225 433 -282 237 -141 503 -278 730 -377 72 -32 144
-64 162 -72 17 -8 33 -14 36 -14 2 0 22 -8 43 -17 22 -9 41 -17 44 -18 3 -1
14 -5 25 -9 64 -26 176 -65 210 -75 22 -7 49 -16 60 -21 69 -31 470 -140 695
-189 110 -24 263 -51 369 -67 25 -4 54 -8 65 -10 10 -2 44 -6 75 -10 31 -3 64
-8 74 -10 10 -2 52 -6 93 -9 42 -4 83 -8 92 -10 143 -27 975 -27 1162 0 14 2
57 6 95 10 68 6 123 12 175 20 14 2 45 6 70 10 25 3 56 8 70 10 14 3 40 7 58
10 78 12 105 17 247 46 411 83 910 237 1202 370 24 10 45 19 49 19 3 0 29 11
57 24 29 13 82 37 118 54 570 262 1099 605 1572 1020 239 209 587 573 772 807
22 28 42 52 45 55 9 8 172 229 235 317 32 45 61 81 64 79 72 -40 595 -340 669
-385 57 -33 105 -61 107 -61 1 0 54 -29 116 -65 l114 -66 19 23 c39 49 363
610 373 646 6 25 -7 38 -62 67 -16 8 -48 26 -70 40 -22 14 -53 32 -70 40 -16
9 -43 24 -60 34 -36 22 -193 114 -250 146 -75 42 -390 227 -437 257 l-47 29
39 82 c20 45 54 116 73 158 99 212 215 517 282 740 20 68 43 143 51 167 12 37
25 86 39 152 2 8 14 60 28 115 14 55 28 118 33 140 4 22 8 45 10 50 3 13 10
51 19 100 4 22 9 49 12 60 2 11 6 36 8 55 3 19 8 46 11 60 3 14 8 41 10 60 2
19 6 49 8 65 3 17 7 53 11 80 3 28 8 64 10 80 2 17 7 59 10 95 3 36 8 79 10
95 20 156 27 790 12 985 -24 309 -36 412 -67 600 -5 30 -12 71 -15 90 -3 19
-10 60 -16 90 -6 30 -12 64 -14 75 -23 150 -144 595 -225 828 -133 387 -366
902 -514 1136 -14 22 -26 43 -26 45 0 7 -144 238 -203 326 -125 186 -341 474
-447 595 -252 285 -520 555 -720 723 -14 11 -36 31 -50 42 -14 12 -77 64 -140
114 -466 374 -992 684 -1560 918 -80 33 -158 66 -175 73 -61 26 -360 126 -508
169 -202 59 -501 130 -637 151 -19 3 -60 10 -90 15 -98 17 -142 23 -245 35
-27 4 -61 8 -75 10 -14 2 -61 7 -105 10 -44 4 -87 8 -95 10 -8 1 -48 6 -87 10
l-73 7 0 514 0 514 -400 0 -400 0 0 -515z m0 -2875 l0 -1160 -397 -1 c-478 -1
-509 -2 -506 -14 6 -23 37 -88 101 -210 38 -71 119 -229 181 -350 155 -301
261 -506 339 -655 67 -129 80 -155 92 -180 4 -8 32 -62 62 -120 30 -58 99
-190 153 -295 54 -104 119 -230 145 -280 26 -49 86 -164 133 -255 47 -91 92
-177 100 -193 17 -32 18 -31 67 63 18 36 52 101 75 145 23 44 79 151 124 238
44 86 118 228 162 315 45 86 112 216 149 287 68 130 169 326 328 635 46 91
115 224 152 295 211 406 290 565 283 567 -25 4 -172 6 -535 7 l-408 1 0 1161
0 1161 98 -6 c53 -4 104 -8 112 -11 8 -2 38 -6 65 -10 73 -9 238 -36 244 -39
3 -2 28 -7 55 -10 27 -4 52 -9 55 -11 3 -1 22 -6 41 -9 44 -7 59 -10 145 -31
39 -9 78 -18 88 -20 10 -2 27 -7 37 -10 10 -3 27 -8 37 -10 118 -25 407 -122
603 -202 120 -48 546 -253 625 -300 290 -171 447 -276 645 -427 58 -44 107
-83 110 -86 3 -3 32 -27 65 -55 96 -80 353 -332 526 -516 223 -237 499 -621
679 -944 88 -157 231 -458 302 -635 42 -104 151 -418 164 -470 1 -8 23 -94 48
-190 24 -96 52 -215 61 -265 10 -49 19 -99 21 -110 2 -10 6 -35 9 -55 3 -20 7
-45 9 -56 2 -12 7 -45 11 -74 4 -29 8 -60 10 -69 1 -9 6 -50 10 -91 4 -41 9
-82 10 -91 18 -93 25 -652 11 -844 -11 -152 -35 -371 -50 -451 -2 -10 -9 -50
-15 -89 -16 -102 -17 -108 -24 -135 -3 -14 -16 -70 -28 -125 -31 -145 -93
-370 -145 -523 -77 -227 -210 -556 -250 -617 l-15 -24 -47 26 c-109 60 -842
481 -1219 700 -224 130 -446 259 -493 286 -47 27 -91 54 -98 61 -18 18 12 78
217 431 48 83 90 157 94 165 4 8 15 29 25 45 50 81 82 146 77 155 -3 5 -13 8
-23 8 -28 -1 -306 12 -369 17 -32 2 -123 7 -203 10 -80 3 -176 7 -215 9 -38 3
-133 7 -210 10 -77 4 -169 8 -205 11 -36 2 -123 7 -195 10 -71 3 -173 8 -225
10 -52 2 -149 7 -216 10 -66 3 -152 7 -190 10 -38 2 -143 7 -233 10 -91 4
-181 8 -200 10 -20 2 -118 7 -219 10 l-183 7 20 -39 c12 -21 75 -121 141 -223
104 -162 140 -218 193 -305 7 -11 15 -22 18 -25 5 -4 48 -73 99 -155 8 -14 49
-77 90 -140 41 -63 86 -133 100 -155 49 -79 821 -1276 858 -1329 41 -60 59
-72 69 -45 4 10 25 47 47 84 46 75 280 478 308 530 25 47 70 122 89 150 19 28
-21 48 389 -190 173 -100 330 -191 348 -201 18 -11 66 -38 105 -60 40 -23 86
-50 102 -60 17 -10 46 -26 65 -37 72 -40 110 -62 149 -86 22 -15 45 -26 51
-26 5 0 10 -5 10 -10 0 -6 3 -9 8 -8 4 1 18 -5 32 -14 14 -9 122 -72 241 -142
307 -178 384 -226 381 -237 -6 -24 -172 -243 -278 -369 -189 -223 -544 -574
-734 -725 -389 -310 -793 -553 -1245 -749 -71 -31 -139 -61 -150 -66 -11 -5
-83 -31 -160 -58 -257 -91 -540 -168 -795 -217 -77 -14 -121 -22 -175 -30 -22
-3 -53 -8 -70 -10 -16 -3 -46 -7 -65 -9 -19 -2 -60 -7 -90 -11 -303 -35 -799
-40 -1070 -10 -25 2 -72 7 -105 10 -33 3 -71 7 -85 10 -14 2 -45 7 -70 10 -25
3 -58 8 -75 10 -16 3 -55 10 -85 15 -70 12 -93 16 -160 30 -30 6 -65 13 -77
16 -296 59 -719 199 -1008 332 -227 104 -477 234 -620 322 -146 89 -479 320
-505 349 -3 3 -34 28 -70 56 -109 83 -239 205 -465 435 -231 236 -262 271
-440 506 -16 21 -38 48 -47 58 -10 11 -18 23 -18 27 0 4 -7 14 -15 22 -17 17
-12 22 48 56 86 48 108 61 146 85 22 15 43 26 45 26 2 0 40 21 83 46 43 26 92
55 109 64 16 10 88 51 160 92 328 190 536 310 581 334 26 15 53 30 58 34 11 9
232 137 310 180 28 15 111 64 186 107 l136 80 168 -291 c267 -462 281 -486
293 -486 4 0 23 26 43 58 69 108 281 437 324 502 24 36 119 182 210 325 92
143 238 369 324 503 86 134 163 254 171 268 20 32 318 495 395 614 61 93 95
153 95 165 0 4 -51 4 -112 0 -62 -3 -153 -8 -203 -10 -49 -2 -142 -7 -205 -10
-182 -9 -286 -14 -420 -20 -69 -3 -168 -8 -220 -11 -52 -2 -138 -7 -190 -9
-52 -2 -149 -7 -215 -10 -66 -3 -156 -7 -200 -10 -44 -3 -134 -7 -200 -10
-282 -12 -355 -15 -440 -20 -49 -3 -135 -7 -190 -10 -206 -10 -280 -16 -287
-23 -8 -8 32 -79 242 -442 62 -107 122 -211 133 -230 41 -71 77 -138 77 -144
0 -3 -30 -22 -66 -43 -36 -21 -80 -46 -97 -57 -34 -19 -658 -380 -717 -414
-19 -11 -138 -79 -265 -152 -126 -73 -250 -144 -275 -158 -25 -13 -72 -41
-105 -60 -33 -19 -89 -51 -125 -70 -36 -19 -72 -40 -80 -46 -8 -6 -31 -20 -50
-30 -19 -10 -49 -27 -66 -38 l-32 -18 -19 32 c-62 108 -209 467 -276 673 -55
174 -64 202 -101 350 -31 124 -56 238 -70 315 -2 14 -9 52 -15 85 -6 33 -12
74 -15 90 -11 77 -16 113 -21 155 -3 25 -8 65 -11 90 -3 25 -7 59 -9 75 -26
214 -26 763 0 988 2 15 6 60 10 100 3 40 8 79 10 87 2 8 7 40 10 70 4 30 8 57
10 60 2 3 6 29 10 59 8 62 7 60 35 195 140 677 438 1383 808 1915 60 86 129
183 139 196 5 6 38 48 73 95 35 47 69 90 75 96 5 6 35 40 65 75 88 102 333
354 481 494 241 229 569 466 939 679 265 153 687 340 980 434 202 65 574 158
710 177 25 4 68 11 95 16 110 21 290 44 373 46 l62 2 0 -1159z"/>
</g>
</svg>
